<?xml version="1.0" standalone="no"?>
<!DOCTYPE svg PUBLIC "-//W3C//DTD SVG 20010904//EN"
 "http://www.w3.org/TR/2001/REC-SVG-20010904/DTD/svg10.dtd">
<svg version="1.0" xmlns="http://www.w3.org/2000/svg"
 width="202.000000pt" height="202.000000pt" viewBox="0 0 202.000000 202.000000"
 preserveAspectRatio="xMidYMid meet">
<metadata>
Created by potrace 1.11, written by Peter Selinger 2001-2013
</metadata>
<g transform="translate(0.000000,202.000000) scale(0.100000,-0.100000)"
fill="#000000" stroke="none">
<path d="M985 1928 c-33 -18 -45 -40 -45 -85 l0 -43 -162 -2 -163 -3 -3 -37
c-3 -36 -5 -38 -38 -38 l-34 0 0 -789 0 -790 -37 -3 c-30 -2 -38 -7 -38 -23 0
-20 7 -20 565 -20 558 0 565 0 565 20 0 17 -8 20 -52 23 l-53 3 0 65 0 64 39
0 c22 0 43 5 46 10 4 6 -28 11 -87 12 -53 1 -72 3 -45 5 41 4 48 7 42 21 -4 9
-6 24 -5 32 1 8 3 54 4 102 0 47 4 82 7 77 3 -6 11 -4 18 4 9 11 8 17 -3 26
-8 7 -16 8 -18 4 -3 -4 -3 -2 -1 5 1 8 3 20 3 27 0 10 17 15 60 17 33 2 60 8
60 13 0 6 -27 11 -60 13 -56 3 -60 4 -60 27 0 25 1 25 85 25 50 0 85 4 85 10
0 6 -35 10 -85 10 l-85 0 0 220 0 220 140 0 c87 0 140 4 140 10 0 6 -72 10
-195 10 -123 0 -195 4 -195 10 0 6 25 10 55 10 57 0 66 8 40 33 -13 13 -13 16
0 21 8 3 15 15 15 26 0 11 7 23 15 26 8 4 15 14 15 24 0 10 -7 20 -15 24 -12
4 -15 30 -15 141 l0 135 50 0 c28 0 50 5 50 10 0 6 -42 11 -102 12 -57 1 -81
3 -53 5 56 5 95 33 71 52 -7 6 -16 8 -19 4 -4 -3 -7 -1 -7 5 0 7 -13 12 -29
12 -27 0 -30 3 -33 38 l-3 37 -167 3 -168 2 0 50 c0 41 -4 52 -26 69 -30 24
-40 25 -69 9z m-207 -505 c-3 -46 -4 -48 -35 -51 l-33 -3 0 50 0 51 36 0 35 0
-3 -47z m92 -4 l0 -50 -32 3 c-32 3 -33 5 -36 51 l-3 47 35 0 36 0 0 -51z
m360 1 c0 -49 -1 -50 -30 -50 -29 0 -30 1 -30 50 0 49 1 50 30 50 29 0 30 -1
30 -50z m100 -1 l0 -50 -32 3 c-32 3 -33 5 -36 51 l-3 47 35 0 36 0 0 -51z
m-552 -121 l3 -48 -35 0 -36 0 0 51 0 50 33 -3 c31 -3 32 -5 35 -50z m92 2 l0
-50 -35 0 c-35 0 -35 0 -35 43 0 51 4 57 42 57 27 0 28 -2 28 -50z m360 0 c0
-49 -1 -50 -30 -50 -29 0 -30 1 -30 50 0 49 1 50 30 50 29 0 30 -1 30 -50z
m100 0 l0 -50 -35 0 c-35 0 -35 0 -35 43 0 51 4 57 42 57 27 0 28 -2 28 -50z
m-460 -300 l0 -80 -80 0 -80 0 0 80 0 80 80 0 80 0 0 -80z"/>
<path d="M202 128 c-19 -19 6 -38 52 -38 48 0 72 16 55 37 -14 16 -91 17 -107
1z"/>
<path d="M344 125 c-10 -24 9 -37 47 -33 26 2 34 8 34 23 0 16 -8 21 -38 23
-27 2 -39 -1 -43 -13z"/>
</g>
</svg>
